<svg width="25" height="25" viewBox="0 0 25 25" fill="none" xmlns="http://www.w3.org/2000/svg">
<path d="M12.5 0.525391C12.3913 0.525391 12.2829 0.559881 12.1904 0.629881L0.69043 9.60547C0.47543 9.77547 0.43547 10.0896 0.605471 10.3096C0.775471 10.5246 1.08957 10.5645 1.30957 10.3945L2 9.85547V23C2 23.275 2.225 23.5 2.5 23.5H9.5V14.5H15.5V23.5H22.5C22.775 23.5 23 23.275 23 23V9.85547L23.6904 10.3945C23.7854 10.4645 23.89 10.5 24 10.5C24.15 10.5 24.2945 10.4346 24.3945 10.3096C24.5645 10.0896 24.5246 9.77547 24.3096 9.60547L12.8096 0.629881C12.7171 0.559881 12.6088 0.525391 12.5 0.525391ZM17.5 2.5V3.02539L20.5 5.36524V2.5H17.5Z" fill="#363D78"/>
</svg>
