<svg width="25" height="25" viewBox="0 0 25 25" fill="none" xmlns="http://www.w3.org/2000/svg">
<path fill-rule="evenodd" clip-rule="evenodd" d="M17.2188 5.89062V8.32812L18.7813 6.78125V3.90625L18 3.125H3.93753L3.15628 3.90625V4.6656L3.125 4.68755V20.7657L3.6875 21.4844L11.5 24.1719L12.5 23.4375V21.8749H18L18.7813 21.0937V20.3124V18.2655L17.2188 16.703V20.3124H12.5V7.35942L11.9844 6.64067L6.30655 4.6875H10.9688H17.2188V5.89062ZM10.9375 22.3125L4.6875 20.2188V5.81255L10.9375 7.9063V22.3125ZM21.125 13.2501H13.3594V11.6876H21.0625L18.5625 9.18758L19.6719 8.09383L23.5312 11.9376V13.047L19.6406 16.922L18.5469 15.8282L21.125 13.2501Z" fill="#363D78"/>
</svg>
